<svg xmlns="http://www.w3.org/2000/svg" width="350.083" height="60.644" xmlns:v="https://vecta.io/nano"><g fill="#f0ad4e" stroke="#f0ad4e" stroke-linejoin="round" stroke-width="4.332"><path d="M62.81 23.824H39.527l-7.04-21.659-7.039 21.659H2.165l18.952 12.995-7.31 21.659 18.681-13.537 18.681 13.537-7.31-21.659zm71.277 0h-23.283l-7.039-21.659-7.039 21.659H73.442l18.952 12.995-7.31 21.659 18.681-13.537 18.681 13.537-7.31-21.659zm71.276 0H182.08l-7.039-21.659-7.039 21.659h-23.283l18.952 12.995-7.31 21.659 18.681-13.537 18.681 13.537-7.31-21.659z"/><use href="#B"/><use href="#B" x="71.277"/></g><defs ><path id="B" d="M276.64 23.824h-23.283l-7.039-21.659-7.039 21.659h-23.283l18.952 12.995-7.31 21.659 18.681-13.537 18.681 13.537-7.31-21.659z"/></defs></svg>