<svg xmlns="http://www.w3.org/2000/svg" height="100%" viewBox="0 0 512 512" width="100%" fill-rule="evenodd" stroke-linejoin="round" stroke-miterlimit="2" xmlns:v="https://vecta.io/nano"><path d="M373.295 307.064c-6.37-3.188-37.687-18.596-43.526-20.724s-10.084-3.187-14.331 3.188-16.454 20.725-20.17 24.976-7.431 4.785-13.8 1.594-26.895-9.913-51.225-31.616c-18.935-16.89-31.72-37.749-35.435-44.126s-.397-9.824 2.792-13c2.867-2.854 6.371-7.44 9.555-11.16s4.247-6.377 6.37-10.626 1.062-7.971-.532-11.159-14.33-34.542-19.638-47.298c-5.171-12.419-10.422-10.737-14.332-10.934-3.711-.184-7.963-.223-12.208-.223s-11.148 1.594-16.987 7.969-22.293 21.789-22.293 53.14 22.824 61.642 26.009 65.894 44.916 68.59 108.816 96.181c15.196 6.564 27.062 10.483 36.312 13.418 15.259 4.849 29.145 4.165 40.121 2.524 12.238-1.827 37.686-15.408 42.995-30.286s5.307-27.635 3.715-30.292-5.838-4.251-12.208-7.44M257.071 465.757h-.086c-38.022-.015-75.313-10.23-107.845-29.535l-7.738-4.592-80.194 21.037 21.405-78.19-5.037-8.017c-21.211-33.735-32.414-72.726-32.397-112.763.047-116.825 95.1-211.87 211.976-211.87 56.595.019 109.795 22.088 149.801 62.139s62.023 93.286 62.001 149.902c-.048 116.834-95.1 211.889-211.886 211.889M437.403 73.533C389.272 25.347 325.265-1.202 257.068-1.23 116.554-1.23 2.193 113.124 2.136 253.681c-.018 44.932 11.72 88.786 34.03 127.448L0 513.231l135.141-35.45c37.236 20.31 79.159 31.015 121.826 31.029h.105c140.499 0 254.87-114.366 254.928-254.925.026-68.117-26.467-132.166-74.597-180.352"/></svg>