<svg xmlns="http://www.w3.org/2000/svg" height="100%" viewBox="0 0 600 600" width="100%" fill-rule="nonzero" stroke-linejoin="round" stroke-miterlimit="2" xmlns:v="https://vecta.io/nano"><path d="M300 44c-69.526 0-78.244.295-105.549 1.541-27.248 1.244-45.858 5.571-62.142 11.9-16.834 6.542-31.111 15.296-45.342 29.527s-22.985 28.508-29.527 45.342c-6.329 16.283-10.656 34.893-11.9 62.141C44.294 221.756 44 230.474 44 300l1.54 105.548c1.244 27.248 5.571 45.858 11.9 62.141 6.542 16.834 15.296 31.111 29.527 45.343s28.508 22.985 45.342 29.527c16.284 6.328 34.894 10.656 62.142 11.899 27.305 1.246 36.023 1.541 105.549 1.541s78.243-.295 105.548-1.541c27.248-1.243 45.858-5.571 62.141-11.899 16.834-6.542 31.111-15.296 45.343-29.527s22.985-28.509 29.527-45.343c6.328-16.283 10.656-34.893 11.899-62.141 1.246-27.305 1.541-36.023 1.541-105.548l-1.541-105.549c-1.243-27.248-5.571-45.858-11.899-62.141-6.542-16.834-15.296-31.111-29.527-45.342s-28.509-22.985-45.343-29.527c-16.283-6.329-34.893-10.656-62.141-11.9C378.242 44.295 369.524 44 300 44zm0 46.127l103.445 1.492c24.96 1.139 38.515 5.31 47.535 8.814 11.949 4.644 20.477 10.192 29.435 19.15s14.506 17.487 19.15 29.435c3.506 9.021 7.676 22.576 8.814 47.535 1.232 26.994 1.493 35.091 1.493 103.446l-1.493 103.445c-1.138 24.96-5.309 38.515-8.814 47.535-4.644 11.949-10.191 20.477-19.15 29.435s-17.486 14.506-29.435 19.15c-9.021 3.506-22.576 7.676-47.535 8.814-26.99 1.232-35.086 1.493-103.445 1.493s-76.455-.261-103.446-1.493c-24.96-1.138-38.515-5.309-47.535-8.814-11.949-4.644-20.477-10.191-29.436-19.15s-14.506-17.486-19.149-29.435c-3.506-9.021-7.676-22.576-8.815-47.535-1.232-26.994-1.492-35.091-1.492-103.445l1.492-103.446c1.139-24.96 5.31-38.515 8.815-47.535 4.643-11.948 10.191-20.477 19.149-29.435s17.487-14.506 29.436-19.15c9.021-3.505 22.576-7.675 47.535-8.814 26.994-1.232 35.091-1.492 103.446-1.492z"/><path d="M300 385.332c-47.129 0-85.334-38.205-85.334-85.333s38.205-85.334 85.334-85.334 85.333 38.205 85.333 85.334-38.205 85.333-85.333 85.333zm0-216.792c-72.604 0-131.459 58.856-131.459 131.459S227.396 431.458 300 431.458 431.458 372.602 431.458 300 372.602 168.54 300 168.54zm167.372-5.194c0 16.966-13.754 30.719-30.72 30.719s-30.719-13.753-30.719-30.719 13.754-30.719 30.719-30.719 30.72 13.753 30.72 30.719z" fill="#030404"/></svg>